<svg xmlns="http://www.w3.org/2000/svg" width="40" height="40" viewBox="0 0 40 40" fill="none">
  <path d="M12 28c0-6.5 5-9.5 11.5-11.2C29.2 15.3 33 13.2 33 8.8 33 5.2 30 2.8 25.2 2.8c-4.4 0-7.6 2-9.2 5.1" stroke="#0f2044" stroke-width="3.2" stroke-linecap="round"/>
  <path d="M28 12c0 6.5-5 9.5-11.5 11.2C10.8 24.7 7 26.8 7 31.2 7 34.8 10 37.2 14.8 37.2c4.4 0 7.6-2 9.2-5.1" stroke="#0f2044" stroke-width="3.2" stroke-linecap="round"/>
  <circle cx="29.5" cy="8.5" r="2.4" fill="#ef4444"/>
  <circle cx="33.2" cy="13.8" r="2.1" fill="#f59e0b"/>
  <circle cx="10.8" cy="26.2" r="2.1" fill="#3b82f6"/>
  <circle cx="14.5" cy="31.5" r="2.4" fill="#22c55e"/>
</svg>
